<?xml version="1.0" encoding="utf-8"?>
<!-- Generator: Adobe Illustrator 26.0.1, SVG Export Plug-In . SVG Version: 6.00 Build 0)  -->
<svg version="1.1" id="Calque_1" xmlns="http://www.w3.org/2000/svg" xmlns:xlink="http://www.w3.org/1999/xlink" x="0px" y="0px"
	 viewBox="0 0 50 50" style="enable-background:new 0 0 50 50;" xml:space="preserve">
<style type="text/css">
	.st0{fill:#FFFFFF;}
</style>
<path class="st0" d="M10.4,33.3c0-5.5,0-11,0-16.5c0-0.1,0.1-0.2,0.1-0.3c0.4-2.6,1.8-4.5,4.3-5.6c0.6-0.3,1.3-0.4,2-0.5
	c5.5,0,11,0,16.5,0c0.1,0,0.2,0.1,0.3,0.1c2.8,0.3,5.2,2.4,5.9,5.1c0.1,0.4,0.2,0.8,0.2,1.2c0,5.5,0,11,0,16.5
	c0,0.1-0.1,0.2-0.1,0.3c-0.5,2.9-2.1,4.9-4.9,5.8c-0.5,0.2-1,0.2-1.5,0.3c-5.5,0-11,0-16.5,0c-0.1,0-0.2-0.1-0.3-0.1
	c-2.9-0.3-5.2-2.4-5.9-5.2C10.5,34,10.4,33.6,10.4,33.3z M11.8,25c0,2.5,0,5.1,0,7.6c0,3.2,2.5,5.6,5.7,5.6c5,0,10.1,0,15.1,0
	c3.2,0,5.7-2.4,5.7-5.7c0-5.1,0-10.1,0-15.2c0-3.2-2.5-5.6-5.7-5.6c-5,0-10.1,0-15.1,0c-0.4,0-0.7,0-1.1,0.1
	c-2.7,0.5-4.5,2.8-4.6,5.5C11.8,19.9,11.8,22.5,11.8,25z"/>
<path class="st0" d="M25.5,34.1C21,34,17.3,32.7,14,30.2c-0.1-0.1-0.2-0.1-0.2-0.2s-0.1-0.2,0-0.2c0,0,0.2-0.1,0.2,0
	c0.1,0,0.3,0.1,0.4,0.2c2.8,1.4,5.8,2.4,8.9,2.6c3,0.3,6-0.2,8.8-1.2c0.6-0.2,1.3-0.5,1.9-0.7c0.2-0.1,0.5-0.2,0.6,0.1
	c0.1,0.3-0.1,0.4-0.3,0.6c-2,1.4-4.3,2.2-6.7,2.5C26.9,34,26,34,25.5,34.1z"/>
<path class="st0" d="M17.9,27.1c-0.4,0-0.7,0-1,0c0-0.7,0-1.3,0-1.9c0-0.4,0-0.8,0-1.2c0-0.5-0.3-0.7-0.8-0.6c-1,0.2-1,0.2-1,1.2
	c0,0.9,0,1.7,0,2.6c-0.4,0-0.7,0-1,0c0-1.6,0-3.2,0-4.8c0.3,0,0.6,0,1,0c0,0.1,0,0.3,0,0.4c0.2-0.1,0.5-0.2,0.7-0.2
	c0.5-0.2,1-0.1,1.5,0.2c0.1,0.1,0.3,0.1,0.4,0.1c0.3-0.1,0.6-0.2,0.9-0.3c1-0.3,2,0.3,2,1.3c0.1,1.1,0,2.2,0,3.4c-0.3,0-0.7,0-1,0
	c0-0.6,0-1.2,0-1.8c0-0.5,0-1,0-1.5c0-0.4-0.3-0.7-0.7-0.6c-0.3,0.1-0.7,0.2-1,0.2C17.9,24.7,17.9,25.9,17.9,27.1z"/>
<path class="st0" d="M21.7,22.3c0.4,0,0.7,0,1.1,0c0,0.5,0,1,0,1.4c0,0.6,0,1.2,0,1.7s0.3,0.8,0.8,0.8c0.3,0,0.6-0.1,0.8-0.2
	c0.1,0,0.1-0.2,0.1-0.3c0-1,0-2,0-3c0-0.1,0-0.3,0-0.4c0.4,0,0.7,0,1,0c0,1.6,0,3.1,0,4.7c-0.4,0-0.7-0.1-1-0.1
	c-0.1,0-0.2,0-0.3,0.1c-1.1,0.5-2.6-0.2-2.5-1.7C21.7,24.3,21.7,23.3,21.7,22.3z"/>
<path class="st0" d="M29.9,23.3c-0.4-0.1-0.9-0.2-1.3-0.2c-0.1,0-0.3,0-0.4,0.1c-0.2,0.1-0.4,0.2-0.5,0.4c-0.1,0.3,0.2,0.5,0.4,0.6
	c0.4,0.1,0.8,0.3,1.2,0.4c0.4,0.2,0.7,0.5,0.8,0.9c0.2,0.9-0.3,1.6-1.3,1.7c-0.6,0-1.2-0.1-1.7-0.2c-0.6-0.2-0.7-0.3-0.6-1
	c0.4,0.1,0.8,0.3,1.1,0.3c0.4,0,0.8,0,1.2,0c0.1,0,0.4-0.2,0.4-0.3c0-0.2-0.1-0.4-0.2-0.5c-0.2-0.1-0.4-0.2-0.6-0.2
	c-0.3-0.1-0.7-0.2-1-0.4c-0.9-0.5-0.9-1.6,0-2.1c0.8-0.5,1.6-0.4,2.4-0.1c0.1,0,0.2,0.2,0.2,0.3C29.9,22.9,29.9,23.1,29.9,23.3z"/>
<path class="st0" d="M36.1,23.4C36,23.4,36,23.4,36.1,23.4c-0.7-0.3-1.2-0.4-1.7,0.1c-0.6,0.6-0.6,1.3-0.4,2
	c0.2,0.6,0.7,0.9,1.3,0.9c0.3,0,0.5,0,0.8,0c0.2,0.6,0.1,0.7-0.5,0.8c-1.4,0.2-2.5-0.6-2.7-1.9c-0.3-1.4,0.5-2.6,1.7-2.9
	c0.2,0,0.5-0.1,0.7,0C36.3,22.5,36.2,22.5,36.1,23.4z"/>
<path class="st0" d="M35,33.3c0.1-0.3,0.3-0.7,0.4-1c0.1-0.4,0.3-0.9,0.4-1.3c0.1-0.5-0.1-0.8-0.6-0.8c-0.7,0-1.4,0.1-2.1,0.1
	c-0.1,0-0.2,0-0.4,0v-0.1c0.1-0.1,0.2-0.2,0.3-0.3c1.1-0.7,2.3-0.8,3.5-0.5c0.3,0.1,0.5,0.3,0.4,0.7c-0.1,1.2-0.5,2.2-1.3,3.1
	c-0.1,0.1-0.3,0.2-0.4,0.3C35.1,33.4,35.1,33.3,35,33.3z"/>
<path class="st0" d="M31.8,22.3c0,1.6,0,3.2,0,4.8c-0.3,0-0.6,0-1,0c0-1.6,0-3.2,0-4.8C31.1,22.3,31.4,22.3,31.8,22.3z"/>
<path class="st0" d="M32,20.8c0,0.4-0.3,0.7-0.7,0.7c-0.4,0-0.7-0.3-0.7-0.7c0-0.4,0.3-0.7,0.7-0.7C31.7,20.2,32,20.5,32,20.8z"/>
</svg>
