<?xml version="1.0" encoding="utf-8"?>
<!-- Generator: Adobe Illustrator 27.2.0, SVG Export Plug-In . SVG Version: 6.00 Build 0)  -->
<svg version="1.1" id="Calque_1" xmlns="http://www.w3.org/2000/svg" xmlns:xlink="http://www.w3.org/1999/xlink" x="0px" y="0px"
	 viewBox="0 0 50 50" style="enable-background:new 0 0 50 50;" xml:space="preserve">
<style type="text/css">
	.st0{fill:#FFFFFF;}
</style>
<path class="st0" d="M36.3,15.8c-2-0.9-4.1-1.6-6.3-1.9c0,0-0.1,0-0.1,0c-0.3,0.5-0.6,1.1-0.8,1.6c-2.4-0.4-4.7-0.4-7,0
	c-0.2-0.5-0.5-1.1-0.8-1.6c0,0-0.1-0.1-0.1,0c-2.2,0.4-4.3,1-6.3,1.9c0,0,0,0,0,0c-4,6-5.1,11.8-4.5,17.5c0,0,0,0.1,0,0.1
	c2.6,1.9,5.2,3.1,7.7,3.9c0,0,0.1,0,0.1,0c0.6-0.8,1.1-1.7,1.6-2.6c0-0.1,0-0.1-0.1-0.1c-0.8-0.3-1.6-0.7-2.4-1.1
	c-0.1,0-0.1-0.1,0-0.2c0.2-0.1,0.3-0.2,0.5-0.4c0,0,0.1,0,0.1,0c5,2.3,10.5,2.3,15.5,0c0,0,0.1,0,0.1,0c0.2,0.1,0.3,0.3,0.5,0.4
	c0.1,0,0.1,0.1,0,0.2c-0.8,0.4-1.6,0.8-2.4,1.1c-0.1,0-0.1,0.1-0.1,0.1c0.5,0.9,1,1.7,1.6,2.6c0,0,0.1,0,0.1,0
	c2.5-0.8,5.1-2,7.7-3.9c0,0,0,0,0-0.1C41.6,26.7,39.9,21,36.3,15.8C36.4,15.8,36.4,15.8,36.3,15.8z M20.6,29.9
	c-1.5,0-2.8-1.4-2.8-3.1s1.2-3.1,2.8-3.1c1.6,0,2.8,1.4,2.8,3.1C23.3,28.5,22.1,29.9,20.6,29.9z M30.8,29.9c-1.5,0-2.8-1.4-2.8-3.1
	s1.2-3.1,2.8-3.1c1.6,0,2.8,1.4,2.8,3.1C33.6,28.5,32.4,29.9,30.8,29.9z"/>
</svg>
