<?xml version="1.0" encoding="utf-8"?>
<!-- Generator: Adobe Illustrator 27.2.0, SVG Export Plug-In . SVG Version: 6.00 Build 0)  -->
<svg version="1.1" id="Calque_1" xmlns="http://www.w3.org/2000/svg" xmlns:xlink="http://www.w3.org/1999/xlink" x="0px" y="0px"
	 viewBox="0 0 50 50" style="enable-background:new 0 0 50 50;" xml:space="preserve">
<style type="text/css">
	.st0{fill:#FFFFFF;}
</style>
<g>
	<path class="st0" d="M18.2,40.6c0-1.2,0-2.4,0-3.6c-2.4,0-4.9,0-7.3,0c0-0.2,0-0.3,0-0.4c0-6.8,0-13.6,0-20.3c0-0.2,0-0.4,0.1-0.6
		c0.5-1.6,1.1-3.3,1.6-4.9c0.1-0.2,0.2-0.3,0.4-0.3c8.9,0,17.9,0,26.8,0c0.1,0,0.2,0,0.3,0c0,0.1,0,0.3,0,0.4c0,5.8,0,11.7,0,17.5
		c0,0.2-0.1,0.4-0.2,0.6c-2.6,2.6-5.2,5.2-7.8,7.8c-0.2,0.2-0.3,0.2-0.6,0.2c-1.6,0-3.1,0-4.7,0c-0.3,0-0.5,0.1-0.7,0.3
		c-1,1.1-2.1,2.1-3.1,3.1c-0.1,0.1-0.3,0.2-0.4,0.2c-1.4,0-2.8,0-4.2,0C18.3,40.6,18.3,40.6,18.2,40.6z M15.4,13.2
		c0,6.4,0,12.8,0,19.2c2.1,0,4.3,0,6.4,0c0,1.2,0,2.4,0,3.6c0.1-0.1,0.2-0.1,0.2-0.2c1.1-1.1,2.2-2.2,3.2-3.2
		c0.2-0.2,0.3-0.2,0.5-0.2c2.2,0,4.5,0,6.7,0c0.2,0,0.4-0.1,0.5-0.2c1.4-1.4,2.8-2.8,4.2-4.2c0.2-0.2,0.2-0.3,0.2-0.5
		c0-4.7,0-9.3,0-14c0-0.1,0-0.2,0-0.3C30.1,13.2,22.8,13.2,15.4,13.2z"/>
	<path class="st0" d="M25.5,18.7c0,2.7,0,5.4,0,8.1c-0.9,0-1.8,0-2.7,0c0-2.7,0-5.4,0-8.1C23.7,18.7,24.6,18.7,25.5,18.7z"/>
	<path class="st0" d="M32.8,26.9c-0.9,0-1.8,0-2.7,0c0-2.7,0-5.4,0-8.1c0.9,0,1.8,0,2.7,0C32.8,21.4,32.8,24.1,32.8,26.9z"/>
</g>
</svg>
